<svg style="fill: #1890ff" width="180" height="180" viewBox="0 0 180 180" xmlns="http://www.w3.org/2000/svg"><path d="M93.17 62.08c-2.294-5.353-3.442-11.15-3.442-17.39s1.158-12.026 3.472-17.36c2.315-5.333 5.485-9.842 9.51-13.525 4.026-3.684 8.806-6.572 14.341-8.665C122.586 3.047 128.514 2 134.834 2c6.32 0 12.258 1.047 17.813 3.14s10.335 4.981 14.34 8.665c4.006 3.683 7.176 8.192 9.51 13.525C178.834 32.664 180 38.45 180 44.69s-1.167 12.027-3.502 17.36c-2.335 5.334-5.505 9.843-9.51 13.526-4.006 3.683-8.786 6.572-14.341 8.665-5.555 2.093-11.493 3.14-17.813 3.14-6.32 0-12.248-1.047-17.783-3.14-5.535-2.093-10.315-4.982-14.34-8.665-4.026-3.683-7.206-8.182-9.54-13.495zM0 135.378c0-6.441 1.188-12.369 3.563-17.783 2.375-5.414 5.615-9.923 9.721-13.526 4.106-3.602 8.917-6.4 14.432-8.393 5.514-1.992 11.392-2.989 17.631-2.989 3.824 0 7.437.413 10.839 1.238 3.401.825 6.39 1.922 8.967 3.291a37.887 37.887 0 0 1 7.125 4.891c2.174 1.892 4.005 3.834 5.495 5.827a39.853 39.853 0 0 1 3.864 6.31L60.564 124.99c-1.329-2.818-3.332-5.233-6.008-7.246-2.677-2.013-5.747-3.02-9.209-3.02-5.917 0-10.728 1.983-14.431 5.949-3.704 3.965-5.555 8.866-5.555 14.703s1.851 10.738 5.555 14.703c3.703 3.965 8.514 5.948 14.431 5.948 3.14 0 6.028-.635 8.665-1.903 2.637-1.268 4.78-2.908 6.43-4.92h-17.51v-21.738h44.985c0 16.182-4.016 28.661-12.046 37.437-8.031 8.775-19.01 13.163-32.94 13.163-5.635 0-11.039-1.006-16.212-3.019s-9.741-4.82-13.707-8.423c-3.965-3.603-7.125-8.112-9.48-13.526C1.177 147.685 0 141.777 0 135.377zm93.17 17.39c-2.294-5.354-3.442-11.15-3.442-17.39s1.158-12.026 3.472-17.36c2.315-5.334 5.485-9.843 9.51-13.526 4.026-3.683 8.806-6.571 14.341-8.665 5.535-2.093 11.463-3.14 17.783-3.14 6.32 0 12.258 1.047 17.813 3.14 5.555 2.094 10.335 4.982 14.34 8.665 4.006 3.683 7.176 8.192 9.51 13.526 2.336 5.334 3.503 11.12 3.503 17.36s-1.167 12.026-3.502 17.36c-2.335 5.333-5.505 9.842-9.51 13.525-4.006 3.684-8.786 6.572-14.341 8.665-5.555 2.093-11.493 3.14-17.813 3.14-6.32 0-12.248-1.047-17.783-3.14-5.535-2.093-10.315-4.981-14.34-8.665-4.026-3.683-7.206-8.181-9.54-13.495zm27.576-120.554c-3.335 3.597-5.002 8.075-5.002 13.433 0 5.36 1.676 9.837 5.03 13.434 3.353 3.597 7.734 5.396 13.143 5.396 5.41 0 9.8-1.799 13.172-5.396s5.058-8.075 5.058-13.434c0-5.358-1.686-9.836-5.058-13.433-3.372-3.597-7.762-5.396-13.172-5.396-5.41 0-9.8 1.799-13.171 5.396zm0 90.686c-3.335 3.597-5.002 8.075-5.002 13.434s1.676 9.836 5.03 13.433c3.353 3.597 7.734 5.396 13.143 5.396 5.41 0 9.8-1.799 13.172-5.396s5.058-8.074 5.058-13.433-1.686-9.837-5.058-13.434c-3.372-3.597-7.762-5.395-13.172-5.395-5.41 0-9.8 1.798-13.171 5.395zM32.54 62.375h48.847c.683 0 1.237.554 1.237 1.237v23.09c0 .68-.55 1.233-1.23 1.237l-75.64.4a1.237 1.237 0 0 1-1.244-1.23V6.314c0-.456.37-.825.824-.825h26.382c.455 0 .824.37.824.825v56.06z" fill="#0072E1"></path></svg>